<svg xmlns="http://www.w3.org/2000/svg" width="137" height="50" xmlns:xlink="http://www.w3.org/1999/xlink" id="Layer_2" data-name="Layer 2" viewBox="0 0 498.32 183.03"><script xmlns=""/>
  <defs>
    <style>
      .cls-1 {
      fill: none;
      }

      .cls-2 {
      fill: #2c2927;
      }

      .cls-3 {
      clip-path: url(#clippath-1);
      }

      .cls-4 {
      fill: #ea3021;
      }

      .cls-5 {
      clip-path: url(#clippath);
      }
    </style>
    <clipPath id="clippath">
      <rect class="cls-1" width="498.32" height="183.03"/>
    </clipPath>
    <clipPath id="clippath-1">
      <rect class="cls-1" width="498.32" height="183.03"/>
    </clipPath>
  </defs>
  <g id="Layer_1-2" data-name="Layer 1">
    <g>
      <g id="culvOa.tif">
        <g>
          <path class="cls-4" d="M350.13,88.6c-2.11-.9-1.79-8.51-.67-10.33,2.51-4.07,5.76-7.51,8.89-11.12l9.14-10.57c3.91-4.52,7.69-8.96,11.04-13.94,1.34-1.99.7-5.12-.61-6.88-1.73-2.32-4.58-3.02-7.33-2.31-2.44.63-4.47,2.76-4.98,5.51-.49,2.68.6,5.67-2.32,5.9-4.13.32-8.22.26-12.42-.06-.79-.06-1.35-.97-1.45-1.71-1.38-10.86,5.4-21.12,15.98-24.07,11.33-3.15,24,1.68,29.48,12.36,7.06-8.26,17.02-13.03,27.76-12.92,9.52.1,18.61,4.05,25.19,10.91,6.66,6.94,10.09,16.28,9.82,25.88-5.47-1.53-10.83,1.5-12.39,6.67-1.54,5.12,1.22,10.51,6.47,12.3-6.47,9.63-17.07,15.46-28.52,15.74-10.27.25-19.9-3.9-27-11.36l-.15,8.84c-.02.94-1.63,1.5-2.46,1.49l-43.48-.35ZM437.85,63.9c3.25-6.34,3.09-14-.43-20.18-2.53-4.44-6.77-7.26-11.78-8.05-2.14-.34-4.17-.3-6.33-.03-5.55.67-10.16,3.98-12.61,9.05-5.12,10.57-.8,25.27,11.4,27.83,7.94,1.67,15.94-1.19,19.75-8.61ZM392.08,73.66c-.56-1.75-1.14-2.63-1.8-3.8-1.79-3.71-2.68-7.62-3.34-11.76l-13.48,15.58,18.61-.02Z"/>
          <polygon class="cls-2" points="482.49 51.07 467.54 79.64 460.35 79.64 467.28 66.85 458.76 51.06 466.26 51.01 470.84 59.98 475.34 51.02 482.49 51.07"/>
          <polygon class="cls-2" points="498.32 71.29 491.75 71.34 491.75 41.56 498.32 41.58 498.32 71.29"/>
          <path class="cls-2" d="M453.26,58.01c3.92-.86,7.52,1.62,8.31,5.35.79,3.7-1.58,7.39-5.36,8.2s-7.28-1.47-8.18-5.09c-.92-3.71,1.27-7.6,5.23-8.47Z"/>
          <polygon class="cls-2" points="489.85 71.32 483.24 71.35 483.24 51.04 489.85 51.01 489.85 71.32"/>
        </g>
      </g>
      <g>
        <g id="tek-satir-hepsiemlak-normal">
          <g class="cls-5">
            <g class="cls-3">
              <path class="cls-4" d="M13.01,124.32c3.44-4.78,8.57-6.48,13.86-6.48,10.97,0,18.79,7.63,18.79,18.84v30.75h-13.01v-26.57c0-6.98-3.49-10.82-9.42-10.82-5.58,0-10.22,3.64-10.22,10.92v26.47H0v-63.95h13.01v20.83Z"/>
              <path class="cls-4" d="M99.56,143.21c0,1.49-.1,3.29-.25,4.39h-34.24c1.4,6.98,6.28,10.02,12.41,10.02,4.19,0,8.72-1.7,12.21-4.64l7.63,8.37c-5.48,5.03-12.46,7.33-20.59,7.33-14.8,0-25.07-10.07-25.07-25.27s9.97-25.57,24.42-25.57,23.43,10.32,23.48,25.37M65.11,138.73h21.38c-1.2-6.18-4.94-9.67-10.52-9.67-6.13,0-9.72,3.69-10.87,9.67"/>
              <path class="cls-4" d="M156.59,143.26c0,14.5-10.07,25.42-23.38,25.42-6.48,0-11.07-2.54-14.21-6.28v20.63h-12.96v-63.9h12.71v5.33c3.14-3.94,7.78-6.63,14.41-6.63,13.36,0,23.43,10.92,23.43,25.42M118.36,143.26c0,7.63,5.03,13.31,12.41,13.31s12.46-5.93,12.46-13.31-4.79-13.31-12.46-13.31-12.41,5.68-12.41,13.31"/>
              <path class="cls-4" d="M197.02,132.59c-3.84-1.89-9.97-3.89-15.4-3.94-4.93,0-7.43,1.74-7.43,4.39,0,2.79,3.49,3.49,7.88,4.14l4.29.65c10.47,1.59,16.3,6.28,16.3,14.46,0,9.97-8.17,16.4-22.18,16.4-6.58,0-15.2-1.25-21.48-5.68l5.13-9.87c4.14,2.74,9.17,4.74,16.45,4.74,6.03,0,8.92-1.69,8.92-4.54,0-2.34-2.44-3.64-8.02-4.44l-3.94-.55c-11.16-1.55-16.7-6.43-16.7-14.65,0-9.92,7.68-15.8,20.39-15.8,7.73,0,13.76,1.45,20.19,4.59l-4.39,10.12Z"/>
              <rect class="cls-4" x="209.39" y="119.14" width="13.01" height="48.3"/>
              <path class="cls-2" d="M279.18,143.55c0,1.5-.1,3.29-.25,4.39l-34.24.02c1.4,6.98,6.29,10.02,12.42,10.01,4.19,0,8.72-1.7,12.21-4.64l7.63,8.37c-5.48,5.04-12.46,7.33-20.58,7.34-14.8,0-25.08-10.06-25.08-25.26,0-15.2,9.96-25.58,24.41-25.58,13.91,0,23.43,10.31,23.49,25.36M244.73,139.08h21.38c-1.2-6.19-4.94-9.68-10.52-9.68-6.13,0-9.72,3.69-10.86,9.68"/>
              <path class="cls-2" d="M363.93,136.98v30.75s-12.95,0-12.95,0v-26.57c-.02-6.98-3.56-10.81-9.44-10.81-5.58,0-10.22,3.64-10.21,10.92v26.47s-13,0-13,0v-26.57c-.02-6.98-3.51-10.81-9.44-10.81-5.58,0-10.22,3.64-10.21,10.92v26.47s-13,0-13,0l-.02-48.3h12.66s0,5.68,0,5.68c3.44-5.14,8.72-6.98,14.2-6.98,6.98,0,12.71,3.13,15.95,8.27,3.74-6.13,10.06-8.28,16.39-8.28,11.37,0,19.05,7.62,19.05,18.83"/>
              <rect class="cls-2" x="372.79" y="103.83" width="13.01" height="63.9"/>
              <path class="cls-2" d="M442.88,167.69h-12.71s0-5.33,0-5.33c-3.14,3.89-7.82,6.58-14.45,6.59-13.31,0-23.38-10.91-23.39-25.41,0-14.51,10.06-25.43,23.37-25.43,6.63,0,11.27,2.69,14.46,6.62v-5.33s12.71,0,12.71,0l.02,48.3ZM405.64,143.54c0,7.38,4.84,13.31,12.47,13.3,7.43,0,12.46-5.69,12.45-13.31,0-7.63-5.04-13.31-12.47-13.3-7.63,0-12.46,5.94-12.45,13.32"/>
              <polygon class="cls-2" points="464.01 136.58 468.6 136.58 482.2 119.38 498.15 119.37 480.05 142.11 498.32 167.67 482.32 167.67 468.4 148.14 464.02 148.14 464.03 167.68 451.02 167.69 450.98 103.79 463.99 103.79 464.01 136.58"/>
              <path class="cls-4" d="M224.13,105.56c0,4.39-3.56,7.95-7.95,7.95s-7.95-3.56-7.95-7.95,3.56-7.95,7.95-7.95,7.95,3.56,7.95,7.95"/>
            </g>
          </g>
        </g>
        <polygon class="cls-4" points="181.32 64.18 167.68 52.27 107.85 0 22.83 74.28 48.35 103.49 107.85 51.51 167.35 103.49 192.88 74.28 181.32 64.18"/>
      </g>
    </g>
  </g>
</svg>
